<svg xmlns="http://www.w3.org/2000/svg" xmlns:xlink="http://www.w3.org/1999/xlink" width="500" zoomAndPan="magnify" viewBox="0 0 375 374.999991" height="500" preserveAspectRatio="xMidYMid meet" version="1.0">
    <defs>
        <g />
        <clipPath id="id1">
            <path d="M 106 272 L 318.96875 272 L 318.96875 374 L 106 374 Z M 106 272 " clip-rule="nonzero" />
        </clipPath>
    </defs>
    <g clip-path="url(#id1)">
        <path fill="#e3f1c8" d="M 122.570312 315.195312 C 121.578125 314.203125 123.542969 312.96875 124.945312 312.9375 L 145.371094 312.472656 C 146.839844 312.351562 148.28125 312.496094 149.699219 312.910156 C 151.476562 313.5625 152.824219 315.015625 154.320312 316.179688 C 162.21875 322.304688 174.089844 320.207031 182.527344 325.589844 C 188.773438 329.578125 191.929688 336.867188 194.75 343.71875 C 197.390625 350.152344 200.074219 356.886719 199.484375 363.808594 C 199.40625 364.765625 199.109375 365.914062 198.183594 366.195312 C 197.644531 366.3125 197.136719 366.226562 196.664062 365.9375 C 191.800781 363.457031 193.519531 355.859375 190.535156 351.285156 C 190.238281 350.738281 189.800781 350.359375 189.21875 350.144531 C 188.238281 349.878906 187.28125 350.703125 186.757812 351.574219 C 183.339844 357.230469 188.816406 366.117188 183.929688 370.542969 C 181.964844 372.332031 179.484375 362.105469 179.433594 361.371094 C 179.132812 356.980469 179.75 352.601562 178.578125 348.273438 C 178.355469 347.417969 177.722656 346.382812 176.867188 346.65625 C 176.464844 346.847656 176.179688 347.152344 176.015625 347.570312 C 173.621094 352.378906 173.152344 357.878906 172.203125 363.175781 C 171.664062 366.1875 170.757812 369.472656 168.175781 371.117188 C 167.789062 371.425781 167.351562 371.527344 166.867188 371.421875 C 166.585938 371.304688 166.359375 371.117188 166.183594 370.867188 C 163.457031 367.546875 163.679688 362.773438 164.160156 358.503906 C 164.636719 354.234375 165.175781 349.5625 162.851562 345.945312 C 160.289062 346.699219 159.261719 349.742188 158.644531 352.351562 L 155.015625 367.582031 C 154.753906 369.109375 154.226562 370.535156 153.433594 371.859375 C 151.296875 374.957031 148.476562 373.570312 147.269531 370.542969 C 146.507812 368.617188 146.730469 366.460938 147.082031 364.417969 C 148.160156 358.144531 150.304688 351.949219 149.960938 345.59375 C 149.824219 343.222656 148.613281 340.253906 146.246094 340.460938 C 144.792969 340.5625 143.75 341.890625 143.003906 343.15625 C 138.542969 350.796875 138.074219 360.054688 135.535156 368.53125 C 134.78125 371.097656 132.585938 374.101562 130.21875 372.945312 C 126.59375 362.679688 137.285156 350.394531 131.476562 341.214844 C 127.808594 342.871094 126.003906 347.046875 125.210938 350.992188 C 124.414062 354.9375 124.242188 359.101562 122.433594 362.695312 C 122.171875 363.359375 121.71875 363.832031 121.066406 364.117188 C 120.125 364.390625 119.203125 363.605469 118.652344 362.789062 C 116.371094 359.367188 116.945312 354.78125 118.441406 350.949219 C 119.9375 347.117188 122.097656 343.515625 122.84375 339.476562 C 123.226562 337.414062 122.585938 334.558594 120.492188 334.472656 C 118.722656 334.394531 117.707031 336.394531 117.003906 338.023438 C 115.492188 341.546875 113.453125 344.730469 110.875 347.570312 C 110.316406 348.367188 109.550781 348.824219 108.585938 348.9375 C 106.585938 348.9375 106.335938 345.996094 106.875 344.054688 C 108.277344 338.757812 110.253906 333.6875 112.804688 328.839844 C 115.355469 323.992188 118.417969 319.492188 121.988281 315.339844 M 225.082031 291.160156 C 226.195312 297.285156 228.058594 303.167969 230.683594 308.8125 C 232.28125 312.234375 234.957031 319.363281 238.332031 321.433594 C 239.425781 322.117188 241.125 321.894531 241.691406 320.730469 C 242.253906 319.566406 241.519531 318.257812 240.914062 317.136719 C 239.792969 315.074219 235.921875 305.390625 238.957031 303.679688 C 242.578125 301.652344 243.621094 311.875 244.082031 313.644531 C 245.074219 317.832031 252.851562 323.914062 251.304688 316.128906 C 250.878906 313.929688 246.179688 299.195312 250.742188 299.238281 C 251.9375 299.238281 252.734375 300.445312 253.261719 301.523438 C 255.019531 305.117188 256.265625 308.878906 257 312.808594 C 257.324219 314.519531 257.5625 316.332031 258.511719 317.796875 C 259.460938 319.257812 261.390625 320.285156 262.988281 319.574219 C 264.417969 318.941406 265.042969 317.230469 265.144531 315.664062 C 265.546875 309.675781 259.332031 303.40625 260.964844 297.785156 C 261.039062 297.460938 261.167969 297.160156 261.347656 296.882812 C 261.527344 296.605469 261.746094 296.367188 262.011719 296.167969 C 262.273438 295.964844 262.5625 295.816406 262.875 295.714844 C 263.191406 295.617188 263.515625 295.574219 263.84375 295.585938 C 264.359375 295.707031 264.804688 295.949219 265.1875 296.316406 C 265.570312 296.683594 265.832031 297.121094 265.972656 297.628906 C 266.246094 298.632812 266.386719 299.652344 266.390625 300.691406 C 266.527344 302.472656 270.769531 315.117188 273.109375 308.503906 C 273.363281 307.484375 273.363281 306.460938 273.109375 305.441406 L 271.632812 295.515625 C 271.433594 294.25 271.324219 292.746094 272.289062 291.898438 C 273.914062 290.476562 276.273438 292.453125 277.375 294.300781 C 279.519531 297.871094 281.199219 301.644531 282.410156 305.628906 C 282.726562 307.179688 283.367188 308.582031 284.324219 309.839844 C 285.375 310.984375 287.296875 311.550781 288.496094 310.515625 C 289.554688 309.660156 289.597656 308.035156 289.347656 306.671875 C 288.417969 301.257812 284.5625 296.269531 285.359375 290.828125 C 285.375 290.203125 285.640625 289.714844 286.152344 289.355469 C 286.886719 288.988281 287.734375 289.628906 288.246094 290.289062 C 291.367188 294.34375 290.8125 300.273438 293.554688 304.585938 C 294.09375 305.441406 295 306.296875 295.964844 306.015625 C 297.144531 305.671875 297.273438 304.0625 297.152344 302.839844 C 296.957031 300.898438 294.683594 292.078125 298.136719 292.574219 C 300.800781 292.949219 301.332031 300.136719 302.511719 302.265625 C 303.085938 303.320312 303.929688 304.421875 305.128906 304.484375 C 306.878906 304.578125 307.871094 302.402344 307.75 300.648438 C 307.582031 298.203125 306.289062 296.003906 305.375 293.730469 C 304.460938 291.453125 303.929688 288.722656 305.222656 286.636719 C 305.25 286.542969 305.292969 286.453125 305.347656 286.371094 C 305.398438 286.289062 305.460938 286.214844 305.53125 286.148438 C 305.605469 286.082031 305.683594 286.023438 305.769531 285.980469 C 305.859375 285.933594 305.949219 285.898438 306.042969 285.875 C 306.140625 285.855469 306.238281 285.84375 306.335938 285.847656 C 306.433594 285.847656 306.527344 285.863281 306.625 285.890625 C 306.71875 285.917969 306.804688 285.957031 306.890625 286.007812 C 306.972656 286.058594 307.050781 286.121094 307.117188 286.191406 C 309.546875 288.046875 309.898438 291.46875 310.683594 294.429688 C 311.078125 295.917969 316.273438 307.417969 318.582031 301.410156 C 318.855469 300.460938 318.894531 299.5 318.699219 298.527344 C 317.75 291.304688 315.796875 284.363281 312.835938 277.703125 C 312.308594 276.296875 311.523438 275.054688 310.476562 273.972656 C 306.675781 270.472656 297.179688 272.765625 292.339844 272.605469 C 284.808594 272.394531 277.335938 272.9375 269.914062 274.238281 C 255.230469 276.78125 241.050781 281.828125 227.476562 287.902344 C 226.671875 288.175781 226.019531 288.65625 225.519531 289.347656 C 225.40625 289.519531 225.335938 289.707031 225.304688 289.910156 C 225.277344 290.113281 225.292969 290.3125 225.351562 290.511719 C 225.410156 290.707031 225.507812 290.882812 225.644531 291.035156 C 225.78125 291.1875 225.945312 291.304688 226.132812 291.382812 " fill-opacity="1" fill-rule="nonzero" />
    </g>
    <path fill="#bacf9c" d="M 151.476562 19.585938 C 162.585938 18.410156 174.082031 14.449219 184.808594 11.652344 C 195.535156 8.855469 206.425781 5.757812 217.132812 2.457031 C 219.988281 1.601562 223.117188 0.675781 225.902344 1.796875 C 227.316406 2.4375 228.53125 3.34375 229.554688 4.507812 C 233.828125 8.933594 234.390625 14.683594 237.757812 19.234375 C 239.296875 21.320312 240.902344 20.566406 243.261719 21.390625 C 245.050781 22.015625 246.023438 23.914062 246.75 25.667969 C 247.734375 28.046875 248.613281 30.46875 249.375 32.929688 C 250.230469 35.816406 251.152344 38.980469 253.578125 40.777344 C 254.980469 41.8125 256.714844 42.238281 258.339844 42.855469 C 268.324219 46.621094 277.144531 62.046875 270.058594 71.679688 C 263.375 80.765625 251.410156 83.921875 240.296875 86.269531 C 220.558594 90.441406 200.71875 94.070312 180.773438 97.152344 C 142.3125 103.078125 101.449219 106.640625 65.953125 90.742188 C 59.34375 87.773438 52.113281 82.71875 52.261719 75.4375 C 52.421875 67.273438 61.660156 62.414062 64.765625 54.902344 C 67.328125 48.757812 65.859375 40.777344 70.636719 36.15625 C 75.011719 31.878906 82.953125 32.503906 86.441406 27.488281 C 88.320312 24.769531 88.269531 21.210938 88.378906 17.90625 C 88.464844 15.5625 88.6875 11.175781 90.59375 9.4375 C 93.117188 7.136719 94.707031 9.25 97.199219 10.773438 C 112.996094 20.414062 133.371094 21.476562 151.304688 19.636719 Z M 192.664062 339.066406 C 192.773438 338.902344 192.878906 338.742188 192.972656 338.570312 C 194.679688 335.316406 192.972656 329.929688 192.972656 326.351562 C 192.9375 321.59375 193.429688 316.890625 194.449219 312.242188 C 196.757812 301.625 201.175781 291.554688 206.210938 281.972656 C 210.734375 273.355469 216.757812 265.621094 220.691406 256.714844 C 224.492188 248.101562 226.84375 238.910156 228.628906 229.6875 C 231.296875 215.914062 233.015625 202.027344 236.324219 188.371094 C 239.433594 175.488281 243.476562 162.78125 246.03125 149.761719 C 248.46875 137.355469 249.261719 124.332031 245.664062 112.210938 C 242.066406 100.085938 233.460938 88.980469 221.605469 84.675781 C 216.871094 83.0625 212.003906 82.292969 207.007812 82.367188 C 202.210938 82.367188 197.175781 82.992188 193.332031 85.789062 C 186.039062 91.078125 189.628906 96.664062 191.902344 103.121094 C 194.367188 110.335938 195.453125 117.75 195.160156 125.367188 C 194.699219 140.878906 189.441406 156.066406 182.117188 169.617188 C 170.304688 191.476562 153.550781 210.359375 141.800781 232.253906 C 133.160156 248.355469 127.40625 265.769531 123.203125 283.445312 C 121.082031 292.34375 119.339844 301.335938 117.800781 310.351562 C 117.253906 313.578125 115.339844 317.703125 116.148438 320.84375 C 117.089844 324.476562 121.464844 327.105469 124.695312 328.414062 C 133.816406 332.136719 143.988281 332 153.6875 333.742188 C 163.542969 335.523438 172.960938 339.269531 182.792969 341.179688 C 186.269531 341.855469 190.722656 341.890625 192.664062 339.066406 Z M 192.664062 339.066406 " fill-opacity="1" fill-rule="nonzero" />
    <path fill="#2b6200" d="M 87.054688 20.082031 C 86.78125 16.117188 87.167969 9.496094 91.996094 8.382812 C 92.089844 8.359375 92.183594 8.359375 92.28125 8.378906 C 92.375 8.398438 92.460938 8.4375 92.539062 8.496094 C 92.617188 8.554688 92.675781 8.628906 92.722656 8.714844 C 92.765625 8.804688 92.789062 8.894531 92.789062 8.992188 C 92.980469 10.402344 91.882812 11.386719 91.355469 12.585938 C 90.851562 13.800781 90.742188 15.050781 91.019531 16.332031 C 91.34375 17.65625 91.917969 18.859375 92.734375 19.945312 C 93.554688 21.035156 94.558594 21.914062 95.738281 22.585938 C 98.011719 23.914062 100.410156 24.945312 102.9375 25.675781 C 105.601562 26.558594 108.308594 27.308594 111.054688 27.917969 C 116.636719 29.15625 122.28125 29.964844 127.988281 30.347656 C 133.722656 30.75 139.484375 30.808594 145.234375 30.671875 C 148.191406 30.605469 151.152344 30.480469 154.109375 30.304688 C 156.929688 30.132812 159.699219 29.75 162.5 29.363281 L 162.585938 29.363281 C 162.613281 29.359375 162.636719 29.359375 162.664062 29.363281 C 165.3125 28.972656 167.960938 28.972656 170.613281 29.363281 C 170.707031 29.390625 170.789062 29.4375 170.863281 29.5 C 170.933594 29.566406 170.988281 29.644531 171.027344 29.734375 C 171.0625 29.824219 171.078125 29.917969 171.070312 30.015625 C 171.0625 30.113281 171.035156 30.203125 170.988281 30.289062 C 170.046875 32 167.878906 32.433594 166.125 32.785156 C 163.863281 33.1875 161.582031 33.433594 159.289062 33.53125 C 154.507812 33.828125 149.792969 34.617188 145.03125 35.105469 C 136.375 35.980469 127.703125 36.207031 119.011719 35.78125 C 114.59375 35.566406 110.175781 35.179688 105.78125 34.632812 C 102.277344 34.199219 98.621094 33.890625 95.328125 32.546875 C 93.96875 32.039062 92.730469 31.3125 91.617188 30.378906 C 90.507812 29.441406 89.582031 28.34375 88.851562 27.085938 C 87.738281 24.882812 87.140625 22.546875 87.054688 20.082031 Z M 66.789062 54.78125 C 67.234375 55.234375 67.523438 55.808594 67.953125 56.296875 C 68.378906 56.78125 68.84375 57.21875 69.355469 57.613281 C 71.507812 59.207031 73.855469 60.441406 76.386719 61.3125 C 87.15625 65.253906 98.859375 65.675781 110.148438 66.785156 C 113.621094 67.128906 117.082031 67.496094 120.542969 66.890625 C 121.285156 66.761719 121.039062 65.707031 120.371094 65.65625 C 105.773438 64.511719 90.722656 62.859375 77.140625 56.972656 C 73.195312 55.367188 69.570312 53.222656 66.261719 50.539062 C 66.027344 50.332031 65.777344 50.308594 65.511719 50.464844 C 65.246094 50.621094 65.144531 50.851562 65.207031 51.15625 C 65.34375 52.535156 65.871094 53.746094 66.789062 54.78125 Z M 311.417969 270.386719 C 308.855469 260.695312 305.75 251.128906 304.230469 241.203125 C 302.625 230.621094 303.316406 219.816406 303.980469 209.144531 C 304.65625 198.246094 305.582031 187.335938 305.289062 176.410156 C 305.015625 166.277344 303.753906 156.273438 301.503906 146.390625 C 299.246094 136.46875 296.0625 126.859375 291.949219 117.554688 C 287.835938 108.25 282.867188 99.425781 277.050781 91.085938 C 274.546875 87.5 271.921875 83.949219 269.230469 80.519531 C 268.152344 79.160156 267.011719 77.84375 265.8125 76.566406 C 267.105469 75.511719 268.285156 74.347656 269.359375 73.066406 C 270.050781 72.246094 270.648438 71.363281 271.152344 70.414062 C 271.65625 69.46875 272.058594 68.476562 272.351562 67.445312 C 272.648438 66.414062 272.828125 65.359375 272.902344 64.289062 C 272.972656 63.21875 272.929688 62.152344 272.777344 61.089844 C 272.410156 58.796875 271.734375 56.597656 270.753906 54.492188 C 269.769531 52.390625 268.519531 50.460938 267 48.707031 C 265.597656 47.03125 264.003906 45.570312 262.210938 44.320312 C 260.230469 43.078125 258.128906 42.097656 255.90625 41.382812 C 252.84375 40.210938 251.390625 37.910156 250.375 34.90625 C 249.355469 31.90625 248.433594 28.808594 247.210938 25.828125 C 246.355469 23.785156 245.355469 21.550781 243.125 20.738281 C 242.039062 20.457031 240.941406 20.234375 239.828125 20.082031 C 238.742188 19.753906 237.953125 19.082031 237.460938 18.0625 C 235.605469 14.964844 234.570312 11.40625 232.988281 8.164062 C 231.527344 5.160156 229.484375 1.652344 226.066406 0.625 C 223.886719 -0.0351562 221.894531 0.710938 219.957031 1.710938 C 219.722656 1.855469 219.625 2.0625 219.660156 2.335938 C 219.695312 2.605469 219.839844 2.78125 220.101562 2.867188 C 223.433594 3.945312 226.691406 5.140625 228.757812 8.144531 C 231.683594 12.636719 231.777344 18.558594 235.375 22.691406 C 236.367188 23.742188 237.507812 24.597656 238.792969 25.257812 C 240.246094 26.113281 241.894531 26.96875 242.304688 28.757812 C 242.792969 30.871094 240.597656 31.425781 239.050781 32.015625 C 237.503906 32.605469 235.84375 33.382812 234.289062 34.164062 C 230.546875 36.035156 226.972656 38.210938 223.324219 40.246094 C 222.65625 40.613281 223.144531 41.503906 223.808594 41.394531 C 229.261719 40.480469 234.585938 39.097656 239.792969 37.242188 C 239.714844 38.953125 237.734375 40.144531 236.375 40.828125 C 234.167969 41.921875 231.871094 42.855469 229.621094 43.855469 L 215.699219 50.070312 L 202.074219 56.144531 C 197.542969 58.28125 192.863281 60.011719 188.03125 61.328125 C 185.660156 61.914062 183.261719 62.328125 180.835938 62.570312 C 179.621094 62.6875 178.414062 62.765625 177.203125 62.789062 C 176.46875 62.789062 175.492188 62.59375 175.261719 63.476562 C 175.1875 63.765625 175.203125 64.050781 175.304688 64.332031 C 175.40625 64.613281 175.582031 64.84375 175.824219 65.015625 C 176.542969 65.519531 177.648438 65.152344 178.441406 65.074219 C 180.847656 64.835938 183.246094 64.550781 185.636719 64.21875 C 190.589844 63.507812 195.496094 62.570312 200.355469 61.414062 C 202.292969 60.824219 204.261719 60.402344 206.269531 60.15625 C 207.65625 60.0625 209.542969 60.15625 210.5 61.300781 C 211.816406 62.9375 210.382812 64.902344 209.382812 66.265625 C 208.214844 67.828125 207.335938 69.539062 206.742188 71.398438 C 206.460938 72.480469 206 73.472656 205.351562 74.382812 C 204.703125 75.292969 203.910156 76.054688 202.980469 76.667969 C 201.125 77.859375 199.199219 78.910156 197.195312 79.824219 C 188.945312 83.675781 179.902344 85.285156 170.953125 86.542969 C 151.042969 89.398438 131.054688 90.121094 110.988281 88.714844 C 101.421875 88.011719 91.800781 87.003906 82.464844 84.761719 C 77.808594 83.710938 73.292969 82.222656 68.917969 80.304688 C 66.882812 79.371094 64.910156 78.300781 62.933594 77.207031 C 61.234375 76.382812 59.8125 75.21875 58.660156 73.714844 C 57.300781 71.664062 57.386719 69.183594 57.386719 66.941406 C 57.386719 66.339844 56.535156 66.085938 56.21875 66.625 C 55.039062 68.765625 53.980469 70.964844 53.039062 73.21875 C 52.6875 74.203125 52.519531 75.21875 52.53125 76.265625 C 52.542969 77.308594 52.738281 78.320312 53.113281 79.296875 C 55.027344 84.429688 59.191406 88.183594 63.917969 90.777344 C 69.425781 93.652344 75.171875 95.933594 81.148438 97.621094 C 87.203125 99.445312 93.367188 100.769531 99.636719 101.601562 C 106.105469 102.46875 112.601562 102.792969 119.125 102.566406 C 122.363281 102.457031 125.585938 102.15625 128.824219 102.0625 C 132.296875 101.96875 135.765625 102.003906 139.234375 101.976562 C 153.082031 101.890625 166.910156 99.777344 180.570312 97.699219 C 190.671875 96.140625 200.75 94.429688 210.800781 92.566406 C 211.144531 93.035156 211.511719 93.480469 211.871094 93.941406 C 213.199219 93.589844 214.546875 93.371094 215.921875 93.292969 C 216.816406 92.660156 217.800781 92.242188 218.878906 92.035156 C 226.980469 90.390625 234.648438 91.992188 239.390625 99.296875 C 239.519531 99.496094 239.640625 99.710938 239.757812 99.914062 L 240.082031 100.238281 C 241.761719 102.21875 243.167969 104.371094 244.304688 106.703125 C 245.441406 109.035156 246.269531 111.472656 246.792969 114.015625 C 246.863281 114.21875 246.945312 114.40625 247 114.628906 C 248.988281 123.46875 248.707031 132.074219 247.304688 140.570312 C 247.613281 140.925781 247.882812 141.304688 248.121094 141.710938 C 248.359375 142.113281 248.558594 142.535156 248.71875 142.976562 C 248.878906 143.414062 249 143.867188 249.078125 144.328125 C 249.160156 144.789062 249.195312 145.253906 249.191406 145.722656 C 249.1875 146.191406 249.140625 146.65625 249.054688 147.117188 C 248.964844 147.574219 248.835938 148.023438 248.667969 148.460938 C 248.5 148.898438 248.292969 149.316406 248.046875 149.714844 C 247.800781 150.113281 247.523438 150.488281 247.210938 150.839844 C 246.167969 152.035156 245.765625 158.007812 245.195312 160.148438 C 244.101562 164.289062 242.753906 168.34375 241.152344 172.3125 C 238.914062 183.777344 234.578125 194.773438 233.460938 206.417969 C 233.308594 208.203125 232.628906 209.757812 231.417969 211.078125 C 231.074219 212.886719 230.757812 214.691406 230.46875 216.496094 C 230.746094 217.589844 230.800781 218.699219 230.621094 219.816406 C 230.199219 222.46875 229.722656 225.101562 229.195312 227.722656 C 229.144531 228.578125 229.101562 229.378906 229.066406 230.21875 C 229.039062 231.726562 228.601562 233.101562 227.757812 234.351562 C 226.109375 241.425781 224.117188 248.410156 221.84375 255.332031 C 221.414062 256.699219 220.664062 257.863281 219.597656 258.820312 C 219.398438 259.359375 219.203125 259.898438 218.988281 260.4375 C 218.027344 262.863281 216.820312 265.164062 215.375 267.332031 C 216.550781 274.402344 218.355469 281.304688 220.785156 288.046875 C 221.628906 290.363281 222.535156 292.644531 223.511719 294.890625 C 224.367188 296.792969 225.09375 299.03125 226.734375 300.394531 C 230.152344 303.25 234.902344 300.445312 238.21875 298.851562 C 247.480469 294.292969 257.003906 290.382812 266.792969 287.113281 C 276.457031 283.867188 286.367188 281.859375 296.527344 281.082031 C 298.871094 280.929688 301.203125 280.929688 303.539062 280.859375 C 305.320312 280.875 307.050781 280.589844 308.734375 280.003906 C 309.460938 279.761719 310.109375 279.386719 310.679688 278.871094 C 311.25 278.359375 311.691406 277.753906 312.007812 277.054688 C 312.828125 274.914062 311.957031 272.519531 311.402344 270.398438 Z M 311.417969 270.386719 " fill-opacity="1" fill-rule="nonzero" />
    <path fill="#b4b685" d="M 305.050781 195.636719 C 304.453125 205.964844 303.570312 216.28125 303.546875 226.617188 C 300.246094 232.628906 296.988281 238.664062 293.769531 244.722656 C 291.835938 248.367188 285.675781 249.546875 282.90625 246.125 C 276.363281 238.042969 270.226562 229.675781 264.496094 221.03125 C 256.296875 233.425781 248.996094 246.328125 242.589844 259.738281 C 240.878906 263.296875 236.253906 263.773438 233.125 262.21875 L 222.714844 257.085938 C 224.445312 252.738281 225.835938 248.285156 226.894531 243.730469 L 233.484375 246.996094 C 240.828125 232.363281 249.246094 218.375 258.734375 205.03125 C 261.714844 200.828125 267.792969 200.316406 270.699219 205.03125 C 275.675781 213.167969 280.957031 221.054688 286.71875 228.671875 C 292.675781 217.570312 298.789062 206.558594 305.050781 195.636719 Z M 248.324219 280.648438 C 253.605469 269.382812 258.890625 258.113281 264.179688 246.84375 C 272.382812 254.867188 281.476562 261.710938 291.453125 267.375 C 291.667969 267.496094 291.898438 267.570312 292.144531 267.601562 C 292.390625 267.632812 292.628906 267.613281 292.867188 267.550781 C 293.109375 267.488281 293.328125 267.382812 293.523438 267.238281 C 293.722656 267.089844 293.886719 266.910156 294.015625 266.699219 C 297.816406 260.601562 301.753906 254.589844 305.828125 248.65625 C 305.441406 246.945312 305.097656 245.234375 304.800781 243.523438 C 300.316406 249.980469 295.976562 256.539062 291.777344 263.203125 C 281.910156 257.429688 272.957031 250.476562 264.921875 242.34375 C 264.714844 242.136719 264.472656 241.988281 264.195312 241.898438 C 263.917969 241.804688 263.636719 241.777344 263.347656 241.8125 C 263.058594 241.847656 262.792969 241.945312 262.546875 242.105469 C 262.304688 242.265625 262.105469 242.46875 261.957031 242.71875 L 245.65625 277.472656 L 219.476562 269.847656 L 217.152344 269.191406 C 217.40625 270.585938 217.691406 271.972656 218.007812 273.355469 L 246.210938 281.492188 C 246.617188 281.601562 247.015625 281.578125 247.40625 281.421875 C 247.796875 281.261719 248.101562 281.003906 248.324219 280.648438 Z M 305.253906 170.5 C 304.453125 171.84375 303.726562 173.261719 302.949219 174.597656 L 299.46875 180.535156 L 286.878906 202.035156 C 279.296875 193.292969 271.382812 184.851562 263.144531 176.71875 C 262.933594 176.519531 262.691406 176.371094 262.417969 176.28125 C 262.140625 176.1875 261.859375 176.160156 261.574219 176.199219 C 261.285156 176.234375 261.019531 176.335938 260.777344 176.492188 C 260.53125 176.652344 260.335938 176.855469 260.1875 177.105469 C 249.972656 192.535156 240.738281 208.527344 232.476562 225.085938 C 231.980469 224.734375 231.492188 224.367188 231.007812 224 C 230.722656 225.351562 230.449219 226.703125 230.152344 228.046875 C 230.835938 228.542969 231.503906 229.046875 232.195312 229.527344 C 232.410156 229.648438 232.640625 229.726562 232.886719 229.757812 C 233.132812 229.789062 233.375 229.773438 233.613281 229.710938 C 233.855469 229.648438 234.074219 229.542969 234.269531 229.394531 C 234.46875 229.242188 234.632812 229.0625 234.757812 228.851562 C 242.910156 212.359375 252.027344 196.421875 262.109375 181.039062 C 270.347656 189.242188 278.261719 197.753906 285.84375 206.578125 C 286.054688 206.78125 286.296875 206.929688 286.574219 207.023438 C 286.847656 207.117188 287.132812 207.144531 287.421875 207.105469 C 287.710938 207.066406 287.976562 206.96875 288.21875 206.808594 C 288.464844 206.648438 288.660156 206.445312 288.8125 206.195312 C 292.28125 200.257812 295.757812 194.320312 299.238281 188.382812 L 304.296875 179.738281 L 305.554688 177.59375 L 305.554688 177.5 C 305.488281 175.164062 305.375 172.828125 305.253906 170.5 Z M 300.8125 142.582031 C 282.921875 150.28125 264.144531 155.730469 245.484375 161.214844 C 244.742188 163.605469 244.09375 166.007812 243.476562 168.429688 C 259.714844 163.730469 275.957031 158.957031 291.777344 152.984375 C 295.296875 151.652344 298.789062 150.246094 302.246094 148.769531 C 301.792969 146.699219 301.300781 144.636719 300.777344 142.582031 Z M 240.84375 295.378906 C 247.808594 292.660156 254.023438 288.371094 260.980469 285.601562 C 268 282.792969 275.242188 280.828125 282.71875 279.707031 C 290.410156 278.550781 298.367188 279.054688 306.007812 277.320312 C 308.273438 276.808594 310.457031 276.054688 312.554688 275.058594 C 312.507812 274.101562 312.351562 273.160156 312.085938 272.238281 C 311.785156 271.046875 311.46875 269.867188 311.152344 268.695312 C 310.472656 269.101562 309.769531 269.460938 309.042969 269.773438 C 301.792969 272.921875 293.476562 272.195312 285.792969 273.023438 C 277.808594 273.859375 270.039062 275.628906 262.476562 278.328125 C 258.679688 279.691406 254.976562 281.277344 251.367188 283.078125 C 247.945312 284.789062 244.640625 286.789062 241.167969 288.441406 C 237.671875 290.078125 233.992188 290.972656 230.136719 291.128906 C 227.984375 291.203125 225.855469 291.4375 223.742188 291.828125 C 224.375 293.414062 225.039062 294.984375 225.742188 296.542969 C 225.921875 296.945312 226.117188 297.347656 226.324219 297.742188 C 227.65625 297.554688 229.023438 297.484375 230.382812 297.40625 C 233.980469 297.292969 237.464844 296.617188 240.84375 295.378906 Z M 182.003906 290.648438 C 177.886719 282.21875 174.539062 273.492188 171.960938 264.46875 C 170.792969 260.394531 165.585938 257.792969 161.800781 260.328125 C 155.210938 264.742188 148.910156 269.542969 142.902344 274.726562 L 134.671875 247.527344 C 131.671875 254.726562 129.078125 262.066406 126.886719 269.550781 C 128.851562 276.0625 130.820312 282.570312 132.792969 289.074219 C 132.875 289.359375 132.980469 289.640625 133.101562 289.914062 C 133.222656 290.1875 133.363281 290.453125 133.519531 290.707031 C 133.671875 290.964844 133.84375 291.207031 134.03125 291.441406 C 134.21875 291.675781 134.417969 291.898438 134.632812 292.105469 C 134.847656 292.3125 135.078125 292.503906 135.316406 292.683594 C 135.554688 292.863281 135.808594 293.027344 136.066406 293.171875 C 136.328125 293.320312 136.597656 293.449219 136.875 293.558594 C 137.152344 293.671875 137.433594 293.765625 137.722656 293.839844 C 138.015625 293.917969 138.308594 293.972656 138.601562 294.011719 C 138.898438 294.050781 139.199219 294.066406 139.496094 294.066406 C 139.796875 294.066406 140.09375 294.046875 140.390625 294.007812 C 140.6875 293.96875 140.980469 293.914062 141.269531 293.835938 C 141.558594 293.761719 141.839844 293.667969 142.117188 293.554688 C 142.394531 293.441406 142.664062 293.3125 142.925781 293.164062 C 143.183594 293.019531 143.433594 292.855469 143.675781 292.675781 C 143.914062 292.496094 144.140625 292.300781 144.355469 292.09375 C 149.773438 286.824219 155.507812 281.925781 161.5625 277.394531 C 164.800781 286.699219 168.789062 295.667969 173.527344 304.304688 C 175.238281 307.390625 179.988281 308.898438 182.988281 306.785156 L 200.195312 294.722656 C 201.972656 290.539062 203.953125 286.4375 206.058594 282.433594 C 208.621094 277.5 211.722656 272.851562 214.605469 268.113281 C 213.914062 268.339844 213.269531 268.667969 212.671875 269.089844 Z M 159.78125 289.417969 C 159.277344 288.246094 157.621094 288.304688 156.816406 289.039062 C 149.222656 296.074219 141.527344 302.996094 133.730469 309.8125 L 123.730469 281.21875 C 123.5 282.125 123.261719 283.035156 123.046875 283.949219 C 122.722656 285.300781 122.421875 286.660156 122.117188 288.023438 C 125.117188 296.542969 128.097656 305.0625 131.054688 313.578125 C 131.101562 313.734375 131.167969 313.886719 131.25 314.027344 C 131.335938 314.167969 131.4375 314.292969 131.554688 314.410156 C 131.671875 314.523438 131.800781 314.621094 131.941406 314.703125 C 132.085938 314.785156 132.234375 314.847656 132.394531 314.890625 C 132.550781 314.933594 132.710938 314.957031 132.875 314.957031 C 133.039062 314.960938 133.203125 314.941406 133.363281 314.898438 C 133.519531 314.859375 133.671875 314.800781 133.816406 314.722656 C 133.960938 314.640625 134.089844 314.546875 134.210938 314.433594 C 142.089844 307.589844 149.871094 300.617188 157.550781 293.523438 C 162.464844 304.699219 168.035156 315.535156 174.261719 326.035156 C 174.390625 326.246094 174.550781 326.429688 174.75 326.578125 C 174.949219 326.726562 175.167969 326.832031 175.40625 326.894531 C 175.644531 326.960938 175.890625 326.976562 176.132812 326.941406 C 176.378906 326.910156 176.609375 326.832031 176.824219 326.710938 L 193.65625 316.035156 C 193.835938 314.957031 194.03125 313.878906 194.261719 312.789062 C 194.40625 312.148438 194.578125 311.515625 194.734375 310.875 L 176.527344 322.433594 C 170.285156 311.769531 164.71875 300.761719 159.824219 289.417969 Z M 172.851562 234.941406 C 172.703125 234.691406 172.503906 234.488281 172.261719 234.328125 C 172.019531 234.167969 171.753906 234.070312 171.464844 234.035156 C 171.175781 234 170.894531 234.027344 170.617188 234.121094 C 170.34375 234.210938 170.101562 234.359375 169.894531 234.566406 L 150.449219 252.53125 L 144.628906 227.4375 C 143.6875 229.046875 142.765625 230.664062 141.886719 232.296875 L 147.527344 256.613281 C 147.570312 256.773438 147.632812 256.921875 147.71875 257.0625 C 147.800781 257.207031 147.902344 257.335938 148.015625 257.449219 C 148.132812 257.566406 148.261719 257.664062 148.40625 257.746094 C 148.546875 257.828125 148.699219 257.890625 148.855469 257.9375 C 149.015625 257.980469 149.175781 258 149.339844 258.003906 C 149.503906 258.003906 149.667969 257.984375 149.824219 257.941406 C 149.984375 257.902344 150.136719 257.839844 150.28125 257.761719 C 150.421875 257.679688 150.554688 257.582031 150.671875 257.46875 C 157.367188 251.296875 164.058594 245.125 170.742188 238.953125 C 176.246094 248.667969 181.210938 258.648438 185.636719 268.898438 C 185.855469 269.265625 186.160156 269.53125 186.558594 269.691406 C 186.953125 269.847656 187.355469 269.871094 187.765625 269.753906 L 220.417969 257.390625 L 220.484375 257.253906 C 221.152344 255.730469 221.757812 254.191406 222.347656 252.644531 L 188.253906 265.546875 C 183.695312 255.0625 178.578125 244.859375 172.894531 234.941406 Z M 156.808594 208.523438 C 155.507812 210.394531 154.246094 212.285156 152.960938 214.175781 C 173.476562 218 193.773438 222.847656 213.851562 228.722656 C 218.542969 230.089844 223.203125 231.527344 227.859375 233 C 228.050781 232.074219 228.238281 231.144531 228.417969 230.21875 C 228.640625 229.074219 228.84375 227.925781 229.058594 226.796875 C 208.207031 220.203125 187.074219 214.707031 165.65625 210.308594 C 162.738281 209.664062 159.804688 209.070312 156.851562 208.523438 Z M 168.648438 327.542969 C 162.132812 325.28125 155.457031 324.246094 148.628906 323.460938 C 142.578125 322.765625 136.5 322.160156 130.679688 320.386719 C 128.140625 319.691406 125.734375 318.6875 123.453125 317.371094 C 121.171875 316.058594 119.09375 314.476562 117.21875 312.628906 C 116.613281 314.972656 115.730469 317.574219 115.789062 319.859375 C 123.730469 326.179688 134.59375 328.105469 144.484375 329.269531 C 151.425781 330.082031 158.347656 330.773438 164.996094 332.941406 C 171.648438 335.105469 177.980469 337.621094 184.921875 338.636719 C 187.472656 339.007812 190.035156 339.242188 192.613281 339.332031 C 192.671875 339.238281 192.730469 339.144531 192.785156 339.046875 C 193.636719 337.429688 193.636719 335.292969 193.441406 333.109375 C 191.457031 333.058594 189.46875 332.921875 187.457031 332.683594 C 180.980469 331.914062 174.886719 329.6875 168.6875 327.542969 Z M 168.648438 327.542969 " fill-opacity="1" fill-rule="nonzero" />
    <path fill="#e3f1c8" d="M 265.769531 76.890625 C 261.714844 79.953125 257 81.785156 252.007812 83.367188 C 246.820312 85.019531 241.203125 85.710938 235.964844 87.210938 C 235.964844 87.304688 235.964844 87.398438 235.921875 87.492188 C 233.898438 87.710938 231.957031 88.238281 230.101562 89.066406 C 226.367188 89.648438 222.578125 90.179688 218.691406 90.84375 C 208.914062 92.554688 199.183594 94.394531 189.382812 95.84375 C 189.78125 96.449219 190.097656 97.101562 190.332031 97.792969 C 190.699219 98.886719 191.023438 100 191.304688 101.113281 C 191.726562 101.636719 191.96875 102.230469 192.039062 102.902344 C 192.039062 103.039062 192.039062 103.164062 192.082031 103.300781 C 192.125 103.4375 192.152344 103.730469 192.195312 103.945312 C 192.28125 104.449219 192.382812 104.953125 192.484375 105.449219 C 192.585938 105.945312 192.757812 106.664062 192.894531 107.265625 C 193.253906 108.390625 193.554688 109.53125 193.792969 110.6875 C 196.339844 107.984375 198.890625 105.28125 201.441406 102.582031 C 203.679688 100.195312 206.117188 97.707031 209.304688 96.945312 C 211.441406 96.433594 213.671875 96.773438 215.871094 96.742188 C 221.082031 96.664062 225.996094 94.515625 231.066406 93.230469 C 231.226562 93.367188 231.402344 93.398438 231.597656 93.328125 C 233.699219 92.652344 235.503906 94.59375 236.722656 96.039062 C 237.976562 97.539062 239.117188 99.121094 240.144531 100.789062 C 242.246094 104.171875 243.894531 107.765625 245.09375 111.566406 C 246.882812 117.484375 247.78125 123.53125 247.792969 129.714844 C 247.792969 129.980469 247.75 130.253906 247.726562 130.527344 C 247.726562 131.269531 247.765625 132.015625 247.765625 132.761719 C 247.765625 134.207031 247.683594 135.660156 247.570312 137.097656 C 247.453125 138.808594 247.273438 140.519531 247.058594 142.230469 C 246.433594 146.671875 245.613281 151.105469 244.707031 155.5 C 244.246094 157.160156 243.777344 158.8125 243.339844 160.472656 C 243.101562 161.40625 242.886719 162.355469 242.65625 163.285156 C 242.589844 163.351562 242.542969 163.429688 242.511719 163.519531 C 239.304688 172.042969 236.855469 180.78125 235.167969 189.734375 C 235.019531 189.8125 234.933594 189.933594 234.914062 190.101562 C 234.5625 192.292969 234.195312 194.472656 233.835938 196.664062 C 232.429688 203.257812 231.226562 209.894531 230.230469 216.582031 C 230.230469 216.785156 230.175781 216.984375 230.144531 217.1875 C 229.835938 218.761719 229.535156 220.335938 229.203125 221.902344 C 227.042969 232.492188 224.144531 242.875 220.511719 253.054688 C 219.460938 255.929688 218.117188 258.847656 217.152344 261.839844 C 216.101562 263.570312 215.53125 265.449219 215.441406 267.472656 C 215.542969 268.617188 215.765625 269.734375 216.109375 270.832031 C 216.332031 271.757812 216.542969 272.671875 216.765625 273.597656 C 216.808594 274.621094 217 275.617188 217.339844 276.582031 L 218.195312 279.730469 C 218.222656 279.839844 218.296875 279.90625 218.40625 279.929688 C 218.765625 281.640625 219.125 283.300781 219.535156 284.976562 C 219.125 283.285156 218.839844 281.574219 218.679688 279.84375 C 218.765625 279.765625 218.792969 279.671875 218.757812 279.558594 C 218.707031 279.363281 218.648438 279.167969 218.597656 278.96875 C 218.277344 272.679688 218.867188 266.476562 220.355469 260.359375 C 220.464844 260.285156 220.535156 260.179688 220.570312 260.054688 C 221.875 255.226562 223.40625 250.46875 225.160156 245.78125 C 226.988281 241.863281 228.988281 238.6875 229.757812 234 C 230.835938 227.5 231.273438 220.902344 233.957031 214.785156 C 235.304688 211.730469 237.144531 208.898438 238.230469 205.742188 C 240.390625 199.417969 239.3125 192.472656 240.347656 185.875 C 241.699219 177.320312 245.878906 169.191406 249.613281 161.515625 C 253.347656 153.839844 255.125 145.132812 255.914062 136.585938 C 256.929688 125.546875 256.441406 114.417969 257.195312 103.363281 C 257.390625 98.53125 258.285156 93.835938 259.878906 89.269531 C 260.921875 86.53125 266.894531 80.339844 266.621094 78.492188 C 266.488281 77.875 266.203125 77.34375 265.769531 76.890625 Z M 265.769531 76.890625 " fill-opacity="1" fill-rule="nonzero" />
    <path fill="#e3f1c8" d="M 234.808594 92.472656 C 234.894531 92.589844 234.980469 92.691406 235.074219 92.804688 C 234.921875 92.695312 234.765625 92.597656 234.605469 92.503906 Z M 234.808594 92.472656 " fill-opacity="1" fill-rule="nonzero" />
    <g fill="#142e00" fill-opacity="1">
        <g transform="translate(66.5625, 164.999989)">
            <g>
                <path d="M 47.8125 0 L 35.4375 0 L 21.96875 -21.65625 L 17.375 -18.359375 L 17.375 0 L 6.46875 0 L 6.46875 -51.40625 L 17.375 -51.40625 L 17.375 -27.875 L 21.65625 -33.921875 L 35.578125 -51.40625 L 47.671875 -51.40625 L 29.75 -28.65625 Z M 47.8125 0 " />
            </g>
        </g>
    </g>
    <g fill="#142e00" fill-opacity="1">
        <g transform="translate(114.374997, 164.999989)">
            <g>
                <path d="M 9.875 0 L 6.40625 0 L 6.40625 -38.21875 L 9.875 -38.21875 Z M 5.90625 -48.828125 C 5.90625 -51.078125 6.644531 -52.203125 8.125 -52.203125 C 8.851562 -52.203125 9.421875 -51.910156 9.828125 -51.328125 C 10.234375 -50.742188 10.4375 -49.910156 10.4375 -48.828125 C 10.4375 -47.773438 10.234375 -46.941406 9.828125 -46.328125 C 9.421875 -45.722656 8.851562 -45.421875 8.125 -45.421875 C 6.644531 -45.421875 5.90625 -46.554688 5.90625 -48.828125 Z M 5.90625 -48.828125 " />
            </g>
        </g>
        <g transform="translate(130.65234, 164.999989)">
            <g>
                <path d="M 20.609375 -35.1875 L 11.609375 -35.1875 L 11.609375 0 L 8.125 0 L 8.125 -35.1875 L 1.015625 -35.1875 L 1.015625 -37.234375 L 8.125 -38.53125 L 8.125 -41.484375 C 8.125 -46.171875 8.984375 -49.609375 10.703125 -51.796875 C 12.429688 -53.992188 15.25 -55.09375 19.15625 -55.09375 C 21.269531 -55.09375 23.378906 -54.773438 25.484375 -54.140625 L 24.6875 -51.125 C 22.8125 -51.707031 20.945312 -52 19.09375 -52 C 16.375 -52 14.445312 -51.195312 13.3125 -49.59375 C 12.175781 -47.988281 11.609375 -45.378906 11.609375 -41.765625 L 11.609375 -38.21875 L 20.609375 -38.21875 Z M 20.609375 -35.1875 " />
            </g>
        </g>
        <g transform="translate(152.238276, 164.999989)">
            <g>
                <path d="M 20.609375 -35.1875 L 11.609375 -35.1875 L 11.609375 0 L 8.125 0 L 8.125 -35.1875 L 1.015625 -35.1875 L 1.015625 -37.234375 L 8.125 -38.53125 L 8.125 -41.484375 C 8.125 -46.171875 8.984375 -49.609375 10.703125 -51.796875 C 12.429688 -53.992188 15.25 -55.09375 19.15625 -55.09375 C 21.269531 -55.09375 23.378906 -54.773438 25.484375 -54.140625 L 24.6875 -51.125 C 22.8125 -51.707031 20.945312 -52 19.09375 -52 C 16.375 -52 14.445312 -51.195312 13.3125 -49.59375 C 12.175781 -47.988281 11.609375 -45.378906 11.609375 -41.765625 L 11.609375 -38.21875 L 20.609375 -38.21875 Z M 20.609375 -35.1875 " />
            </g>
        </g>
        <g transform="translate(173.824212, 164.999989)">
            <g />
        </g>
    </g>
    <g fill="#142e00" fill-opacity="1">
        <g transform="translate(192.527339, 164.999989)">
            <g>
                <path d="M 22.1875 -7.84375 C 24.0625 -7.84375 26.3125 -8.253906 28.9375 -9.078125 L 28.9375 -1.09375 C 26.257812 0.101562 22.976562 0.703125 19.09375 0.703125 C 14.800781 0.703125 11.675781 -0.378906 9.71875 -2.546875 C 7.757812 -4.710938 6.78125 -7.96875 6.78125 -12.3125 L 6.78125 -31.25 L 1.65625 -31.25 L 1.65625 -35.796875 L 7.5625 -39.375 L 10.65625 -47.671875 L 17.515625 -47.671875 L 17.515625 -39.3125 L 28.515625 -39.3125 L 28.515625 -31.25 L 17.515625 -31.25 L 17.515625 -12.3125 C 17.515625 -10.78125 17.941406 -9.648438 18.796875 -8.921875 C 19.648438 -8.203125 20.78125 -7.84375 22.1875 -7.84375 Z M 22.1875 -7.84375 " />
            </g>
        </g>
    </g>
    <g fill="#142e00" fill-opacity="1">
        <g transform="translate(223.78124, 164.999989)">
            <g>
                <path d="M 38 -19.15625 C 38 -12.925781 36.488281 -8.054688 33.46875 -4.546875 C 30.445312 -1.046875 26.273438 0.703125 20.953125 0.703125 C 17.597656 0.703125 14.644531 -0.101562 12.09375 -1.71875 C 9.539062 -3.34375 7.582031 -5.664062 6.21875 -8.6875 C 4.863281 -11.707031 4.1875 -15.195312 4.1875 -19.15625 C 4.1875 -25.394531 5.695312 -30.253906 8.71875 -33.734375 C 11.738281 -37.210938 15.890625 -38.953125 21.171875 -38.953125 C 26.421875 -38.953125 30.535156 -37.1875 33.515625 -33.65625 C 36.503906 -30.132812 38 -25.300781 38 -19.15625 Z M 7.84375 -19.15625 C 7.84375 -13.90625 8.992188 -9.8125 11.296875 -6.875 C 13.609375 -3.9375 16.875 -2.46875 21.09375 -2.46875 C 25.3125 -2.46875 28.570312 -3.9375 30.875 -6.875 C 33.1875 -9.8125 34.34375 -13.90625 34.34375 -19.15625 C 34.34375 -24.4375 33.175781 -28.53125 30.84375 -31.4375 C 28.519531 -34.34375 25.25 -35.796875 21.03125 -35.796875 C 16.8125 -35.796875 13.554688 -34.347656 11.265625 -31.453125 C 8.984375 -28.554688 7.84375 -24.457031 7.84375 -19.15625 Z M 7.84375 -19.15625 " />
            </g>
        </g>
        <g transform="translate(265.968737, 164.999989)">
            <g>
                <path d="M 33.046875 0 L 33.046875 -24.78125 C 33.046875 -28.625 32.238281 -31.421875 30.625 -33.171875 C 29.007812 -34.921875 26.5 -35.796875 23.09375 -35.796875 C 18.53125 -35.796875 15.1875 -34.640625 13.0625 -32.328125 C 10.9375 -30.015625 9.875 -26.269531 9.875 -21.09375 L 9.875 0 L 6.40625 0 L 6.40625 -38.21875 L 9.359375 -38.21875 L 10.015625 -32.984375 L 10.234375 -32.984375 C 12.710938 -36.960938 17.128906 -38.953125 23.484375 -38.953125 C 32.160156 -38.953125 36.5 -34.300781 36.5 -25 L 36.5 0 Z M 33.046875 0 " />
            </g>
        </g>
    </g>
    <g fill="#142e00" fill-opacity="1">
        <g transform="translate(43.32422, 265.499983)">
            <g>
                <path d="M 35.375 0 L 7.28125 0 L 7.28125 -51.40625 L 35.375 -51.40625 L 35.375 -48.09375 L 10.859375 -48.09375 L 10.859375 -28.65625 L 34 -28.65625 L 34 -25.34375 L 10.859375 -25.34375 L 10.859375 -3.3125 L 35.375 -3.3125 Z M 15.8125 -56.1875 C 17.53125 -58.039062 19.222656 -60.050781 20.890625 -62.21875 C 22.566406 -64.382812 23.710938 -66.03125 24.328125 -67.15625 L 29.28125 -67.15625 L 29.28125 -66.5625 C 28.4375 -65.34375 27 -63.722656 24.96875 -61.703125 C 22.945312 -59.691406 20.71875 -57.664062 18.28125 -55.625 L 15.8125 -55.625 Z M 15.8125 -56.1875 " />
            </g>
        </g>
    </g>
    <g fill="#142e00" fill-opacity="1">
        <g transform="translate(83.05078, 265.499983)">
            <g>
                <path d="M 21.59375 0.703125 C 9.351562 0.703125 3.234375 -6.007812 3.234375 -19.4375 C 3.234375 -26.125 4.894531 -31.226562 8.21875 -34.75 C 11.550781 -38.28125 16.320312 -40.046875 22.53125 -40.046875 C 27.082031 -40.046875 31.160156 -39.15625 34.765625 -37.375 L 31.609375 -29.078125 C 29.921875 -29.753906 28.347656 -30.304688 26.890625 -30.734375 C 25.441406 -31.171875 23.988281 -31.390625 22.53125 -31.390625 C 16.957031 -31.390625 14.171875 -27.429688 14.171875 -19.515625 C 14.171875 -11.828125 16.957031 -7.984375 22.53125 -7.984375 C 24.59375 -7.984375 26.503906 -8.257812 28.265625 -8.8125 C 30.023438 -9.363281 31.785156 -10.222656 33.546875 -11.390625 L 33.546875 -2.21875 C 31.804688 -1.113281 30.050781 -0.351562 28.28125 0.0625 C 26.507812 0.488281 24.28125 0.703125 21.59375 0.703125 Z M 21.59375 0.703125 " />
            </g>
        </g>
        <g transform="translate(120.070309, 265.499983)">
            <g>
                <path d="M 41.90625 0 L 31.1875 0 L 31.1875 -22.953125 C 31.1875 -28.628906 29.078125 -31.46875 24.859375 -31.46875 C 21.859375 -31.46875 19.6875 -30.445312 18.34375 -28.40625 C 17.007812 -26.363281 16.34375 -23.0625 16.34375 -18.5 L 16.34375 0 L 5.625 0 L 5.625 -54.703125 L 16.34375 -54.703125 L 16.34375 -43.5625 C 16.34375 -42.695312 16.265625 -40.65625 16.109375 -37.4375 L 15.859375 -34.28125 L 16.421875 -34.28125 C 18.804688 -38.125 22.601562 -40.046875 27.8125 -40.046875 C 32.425781 -40.046875 35.925781 -38.800781 38.3125 -36.3125 C 40.707031 -33.832031 41.90625 -30.269531 41.90625 -25.625 Z M 41.90625 0 " />
            </g>
        </g>
        <g transform="translate(167.390619, 265.499983)">
            <g>
                <path d="M 30.59375 0 L 28.515625 -5.34375 L 28.234375 -5.34375 C 26.429688 -3.070312 24.570312 -1.492188 22.65625 -0.609375 C 20.75 0.265625 18.257812 0.703125 15.1875 0.703125 C 11.414062 0.703125 8.445312 -0.375 6.28125 -2.53125 C 4.113281 -4.6875 3.03125 -7.757812 3.03125 -11.75 C 3.03125 -15.914062 4.488281 -18.988281 7.40625 -20.96875 C 10.320312 -22.945312 14.722656 -24.046875 20.609375 -24.265625 L 27.421875 -24.46875 L 27.421875 -26.1875 C 27.421875 -30.175781 25.382812 -32.171875 21.3125 -32.171875 C 18.164062 -32.171875 14.472656 -31.222656 10.234375 -29.328125 L 6.6875 -36.5625 C 11.207031 -38.925781 16.222656 -40.109375 21.734375 -40.109375 C 27.003906 -40.109375 31.046875 -38.957031 33.859375 -36.65625 C 36.671875 -34.363281 38.078125 -30.875 38.078125 -26.1875 L 38.078125 0 Z M 27.421875 -18.21875 L 23.28125 -18.078125 C 20.15625 -17.984375 17.832031 -17.421875 16.3125 -16.390625 C 14.789062 -15.359375 14.03125 -13.785156 14.03125 -11.671875 C 14.03125 -8.648438 15.765625 -7.140625 19.234375 -7.140625 C 21.710938 -7.140625 23.695312 -7.851562 25.1875 -9.28125 C 26.675781 -10.707031 27.421875 -12.609375 27.421875 -14.984375 Z M 27.421875 -18.21875 " />
            </g>
        </g>
        <g transform="translate(210.878897, 265.499983)">
            <g>
                <path d="M 27.5625 -40.046875 C 29.019531 -40.046875 30.226562 -39.941406 31.1875 -39.734375 L 30.375 -29.671875 C 29.507812 -29.910156 28.457031 -30.03125 27.21875 -30.03125 C 23.789062 -30.03125 21.117188 -29.148438 19.203125 -27.390625 C 17.296875 -25.628906 16.34375 -23.164062 16.34375 -20 L 16.34375 0 L 5.625 0 L 5.625 -39.3125 L 13.75 -39.3125 L 15.328125 -32.703125 L 15.859375 -32.703125 C 17.078125 -34.898438 18.722656 -36.671875 20.796875 -38.015625 C 22.867188 -39.367188 25.125 -40.046875 27.5625 -40.046875 Z M 27.5625 -40.046875 " />
            </g>
        </g>
        <g transform="translate(243.574207, 265.499983)">
            <g>
                <path d="M 27.21875 0.703125 C 22.59375 0.703125 18.96875 -0.972656 16.34375 -4.328125 L 15.78125 -4.328125 C 16.15625 -1.046875 16.34375 0.851562 16.34375 1.375 L 16.34375 17.296875 L 5.625 17.296875 L 5.625 -39.3125 L 14.34375 -39.3125 L 15.859375 -34.203125 L 16.34375 -34.203125 C 18.851562 -38.097656 22.570312 -40.046875 27.5 -40.046875 C 32.132812 -40.046875 35.765625 -38.25 38.390625 -34.65625 C 41.015625 -31.070312 42.328125 -26.09375 42.328125 -19.71875 C 42.328125 -15.53125 41.710938 -11.890625 40.484375 -8.796875 C 39.253906 -5.703125 37.5 -3.34375 35.21875 -1.71875 C 32.945312 -0.101562 30.28125 0.703125 27.21875 0.703125 Z M 24.046875 -31.46875 C 21.398438 -31.46875 19.46875 -30.648438 18.25 -29.015625 C 17.03125 -27.390625 16.394531 -24.703125 16.34375 -20.953125 L 16.34375 -19.796875 C 16.34375 -15.578125 16.96875 -12.550781 18.21875 -10.71875 C 19.476562 -8.894531 21.46875 -7.984375 24.1875 -7.984375 C 28.988281 -7.984375 31.390625 -11.941406 31.390625 -19.859375 C 31.390625 -23.734375 30.796875 -26.632812 29.609375 -28.5625 C 28.429688 -30.5 26.578125 -31.46875 24.046875 -31.46875 Z M 24.046875 -31.46875 " />
            </g>
        </g>
        <g transform="translate(289.136704, 265.499983)">
            <g>
                <path d="M 21.90625 -32.421875 C 19.632812 -32.421875 17.851562 -31.695312 16.5625 -30.25 C 15.269531 -28.8125 14.53125 -26.769531 14.34375 -24.125 L 29.390625 -24.125 C 29.347656 -26.769531 28.65625 -28.8125 27.3125 -30.25 C 25.976562 -31.695312 24.175781 -32.421875 21.90625 -32.421875 Z M 23.421875 0.703125 C 17.085938 0.703125 12.140625 -1.039062 8.578125 -4.53125 C 5.015625 -8.03125 3.234375 -12.976562 3.234375 -19.375 C 3.234375 -25.957031 4.878906 -31.046875 8.171875 -34.640625 C 11.460938 -38.242188 16.015625 -40.046875 21.828125 -40.046875 C 27.390625 -40.046875 31.71875 -38.460938 34.8125 -35.296875 C 37.90625 -32.128906 39.453125 -27.757812 39.453125 -22.1875 L 39.453125 -16.984375 L 14.09375 -16.984375 C 14.21875 -13.929688 15.125 -11.550781 16.8125 -9.84375 C 18.5 -8.132812 20.863281 -7.28125 23.90625 -7.28125 C 26.269531 -7.28125 28.503906 -7.523438 30.609375 -8.015625 C 32.722656 -8.503906 34.929688 -9.289062 37.234375 -10.375 L 37.234375 -2.078125 C 35.359375 -1.140625 33.351562 -0.441406 31.21875 0.015625 C 29.082031 0.472656 26.484375 0.703125 23.421875 0.703125 Z M 23.421875 0.703125 " />
            </g>
        </g>
    </g>
</svg>